<svg xmlns="http://www.w3.org/2000/svg" width="1200" height="760" viewBox="0 0 1200 760" role="img" aria-labelledby="title desc">
  <title id="title">Distry problem workspace preview</title>
  <desc id="desc">A preview of the Distry workspace with a problem statement, editor, and run results panel.</desc>
  <rect width="1200" height="760" fill="#f6f7f2"/>
  <rect x="34" y="30" width="1132" height="700" rx="18" fill="#ffffff" stroke="#1f2937" stroke-width="2"/>
  <rect x="34" y="30" width="1132" height="58" rx="18" fill="#10231f"/>
  <text x="66" y="67" font-family="Inter, Arial, sans-serif" font-size="24" fill="#f8fafc" font-weight="700">Distry</text>
  <text x="998" y="65" font-family="Inter, Arial, sans-serif" font-size="16" fill="#d7e2dc">Perfect Link</text>

  <rect x="58" y="112" width="330" height="594" rx="10" fill="#fbfaf7" stroke="#d1d5db"/>
  <text x="82" y="154" font-family="Inter, Arial, sans-serif" font-size="26" fill="#111827" font-weight="700">Perfect Point-to-Point Link</text>
  <rect x="82" y="176" width="54" height="24" rx="12" fill="#def7ec"/>
  <text x="99" y="193" font-family="Inter, Arial, sans-serif" font-size="12" fill="#065f46" font-weight="700">easy</text>
  <rect x="82" y="230" width="270" height="12" rx="6" fill="#cfd6d1"/>
  <rect x="82" y="257" width="232" height="12" rx="6" fill="#d9ded9"/>
  <rect x="82" y="284" width="252" height="12" rx="6" fill="#d9ded9"/>
  <text x="82" y="350" font-family="Inter, Arial, sans-serif" font-size="18" fill="#111827" font-weight="700">Invariants</text>
  <rect x="82" y="378" width="248" height="12" rx="6" fill="#d9ded9"/>
  <rect x="82" y="405" width="220" height="12" rx="6" fill="#d9ded9"/>
  <rect x="82" y="432" width="236" height="12" rx="6" fill="#d9ded9"/>

  <rect x="418" y="112" width="476" height="368" rx="10" fill="#111827"/>
  <rect x="418" y="112" width="476" height="42" rx="10" fill="#1f2937"/>
  <text x="442" y="139" font-family="Menlo, Consolas, monospace" font-size="14" fill="#e5e7eb">solution.go</text>
  <text x="444" y="192" font-family="Menlo, Consolas, monospace" font-size="15" fill="#9ca3af">func (n *node) HandleMessage(ctx sim.Context,</text>
  <text x="444" y="220" font-family="Menlo, Consolas, monospace" font-size="15" fill="#9ca3af">  from sim.NodeID, msg sim.Message) {</text>
  <text x="468" y="248" font-family="Menlo, Consolas, monospace" font-size="15" fill="#93c5fd">switch</text>
  <text x="532" y="248" font-family="Menlo, Consolas, monospace" font-size="15" fill="#e5e7eb">msg.Type {</text>
  <text x="468" y="276" font-family="Menlo, Consolas, monospace" font-size="15" fill="#fca5a5">case</text>
  <text x="516" y="276" font-family="Menlo, Consolas, monospace" font-size="15" fill="#fde68a">"data"</text>
  <text x="468" y="304" font-family="Menlo, Consolas, monospace" font-size="15" fill="#d1d5db">  probe.Record(ctx.Self(), "deliver", payload)</text>
  <text x="444" y="332" font-family="Menlo, Consolas, monospace" font-size="15" fill="#9ca3af">}</text>

  <rect x="418" y="506" width="476" height="200" rx="10" fill="#f9fafb" stroke="#d1d5db"/>
  <text x="442" y="542" font-family="Inter, Arial, sans-serif" font-size="18" fill="#111827" font-weight="700">Run results</text>
  <rect x="442" y="570" width="410" height="38" rx="8" fill="#ecfdf5" stroke="#10b981"/>
  <text x="462" y="595" font-family="Inter, Arial, sans-serif" font-size="15" fill="#065f46" font-weight="700">Seed 1 passed</text>
  <rect x="442" y="624" width="410" height="54" rx="8" fill="#fff7ed" stroke="#f97316"/>
  <text x="462" y="648" font-family="Inter, Arial, sans-serif" font-size="15" fill="#9a3412" font-weight="700">Seed 3 failed: NoDuplicateDelivery</text>
  <text x="462" y="670" font-family="Inter, Arial, sans-serif" font-size="13" fill="#9a3412">Trace pinned at event #42</text>

  <rect x="924" y="112" width="218" height="594" rx="10" fill="#f8fafc" stroke="#d1d5db"/>
  <text x="948" y="150" font-family="Inter, Arial, sans-serif" font-size="18" fill="#111827" font-weight="700">Trace filters</text>
  <rect x="948" y="178" width="74" height="30" rx="8" fill="#e0f2fe"/>
  <text x="968" y="198" font-family="Inter, Arial, sans-serif" font-size="13" fill="#075985">node 1</text>
  <rect x="1034" y="178" width="82" height="30" rx="8" fill="#ede9fe"/>
  <text x="1054" y="198" font-family="Inter, Arial, sans-serif" font-size="13" fill="#5b21b6">deliver</text>
  <rect x="948" y="246" width="168" height="10" rx="5" fill="#cbd5e1"/>
  <rect x="948" y="276" width="138" height="10" rx="5" fill="#cbd5e1"/>
  <rect x="948" y="306" width="154" height="10" rx="5" fill="#cbd5e1"/>
  <rect x="948" y="336" width="118" height="10" rx="5" fill="#cbd5e1"/>
</svg>
